HIERARCHY
ROOT Hips
{
	OFFSET -3.958830 18.904000 13.208200
	CHANNELS 6 Xposition Yposition Zposition Zrotation Yrotation Xrotation 
	JOINT LHipJoint
	{
		OFFSET 0.000000 0.000000 0.000000
		CHANNELS 3 Zrotation Yrotation Xrotation
		JOINT LeftUpLeg
		{
			OFFSET 1.800000 -1.400000 0.085000
			CHANNELS 3 Zrotation Yrotation Xrotation
			JOINT LeftLeg
			{
				OFFSET 2.215000 -6.000000 0.000000
				CHANNELS 3 Zrotation Yrotation Xrotation
				JOINT LeftFoot
				{
					OFFSET 2.500000 -6.900000 0.000000
					CHANNELS 3 Zrotation Yrotation Xrotation
					JOINT LeftToeBase
					{
						OFFSET 0.200000 -0.500000 1.950000
						CHANNELS 3 Zrotation Yrotation Xrotation
						End Site
						{
							OFFSET 0.000000 0.000000 0.000000
						}
					}
				}
			}
		}
	}
	JOINT RHipJoint
	{
		OFFSET 0.000000 0.000000 0.000000
		CHANNELS 3 Zrotation Yrotation Xrotation
		JOINT RightUpLeg
		{
			OFFSET -1.800000 -1.400000 0.085000
			CHANNELS 3 Zrotation Yrotation Xrotation
			JOINT RightLeg
			{
				OFFSET -2.215000 -6.000000 0.000000
				CHANNELS 3 Zrotation Yrotation Xrotation
				JOINT RightFoot
				{
					OFFSET -2.500000 -6.900000 0.000000
					CHANNELS 3 Zrotation Yrotation Xrotation
					JOINT RightToeBase
					{
						OFFSET -0.200000 -0.500000 1.950000
						CHANNELS 3 Zrotation Yrotation Xrotation
						End Site
						{
							OFFSET 0.000000 0.000000 0.000000
						}
					}
				}
			}
		}
	}
	JOINT LowerBack
	{
		OFFSET 0.000000 0.000000 0.000000
		CHANNELS 3 Zrotation Yrotation Xrotation
		JOINT Spine
		{
			OFFSET -0.087000 1.940000 -0.288900
			CHANNELS 3 Zrotation Yrotation Xrotation
			JOINT Spine1
			{
				OFFSET 0.000000 1.950000 0.060000
				CHANNELS 3 Zrotation Yrotation Xrotation
				JOINT Neck
				{
					OFFSET 0.000000 0.000000 0.000000
					CHANNELS 3 Zrotation Yrotation Xrotation
					JOINT Neck1
					{
						OFFSET 0.000000 1.600000 0.340000
						CHANNELS 3 Zrotation Yrotation Xrotation
						JOINT Head
						{
							OFFSET 0.000000 1.667000 -0.240000
							CHANNELS 3 Zrotation Yrotation Xrotation
							End Site
							{
								OFFSET 0.000000 0.000000 0.000000
							}
						}
					}
				}
				JOINT LeftShoulder
				{
					OFFSET 0.000000 0.000000 0.000000
					CHANNELS 3 Zrotation Yrotation Xrotation
					JOINT LeftArm
					{
						OFFSET 2.700000 1.550000 -0.730000
						CHANNELS 3 Zrotation Yrotation Xrotation
						JOINT LeftForeArm
						{
							OFFSET 5.450000 0.000000 0.000000
							CHANNELS 3 Zrotation Yrotation Xrotation
							JOINT LeftHand
							{
								OFFSET 3.450000 0.000000 0.000000
								CHANNELS 3 Zrotation Yrotation Xrotation
								JOINT LeftHandIndex1
								{
									OFFSET 0.750000 0.000000 0.000000
									CHANNELS 3 Zrotation Yrotation Xrotation
									End Site
									{
										OFFSET 0.000000 0.000000 0.000000
									}
								}
							}
						}
					}
				}
				JOINT RightShoulder
				{
					OFFSET 0.000000 0.000000 0.000000
					CHANNELS 3 Zrotation Yrotation Xrotation
					JOINT RightArm
					{
						OFFSET -2.700000 1.550000 -0.730000
						CHANNELS 3 Zrotation Yrotation Xrotation
						JOINT RightForeArm
						{
							OFFSET -5.450000 0.000000 0.000000
							CHANNELS 3 Zrotation Yrotation Xrotation
							JOINT RightHand
							{
								OFFSET -3.450000 0.000000 0.000000
								CHANNELS 3 Zrotation Yrotation Xrotation
								JOINT RightHandIndex1
								{
									OFFSET -0.750000 0.000000 0.000000
									CHANNELS 3 Zrotation Yrotation Xrotation
									End Site
									{
										OFFSET 0.000000 0.000000 0.000000
									}
								}
							}
						}
					}
				}
			}
		}
	}
}
MOTION
Frames: 10
Frame Time: 0.016667
0.011410 16.748170 0.430230 4.598512 16.330570 1.396867 -14.423840 12.517008 3.102978 4.721210 -2.603902 -15.474243 -9.476723 4.978147 8.346983 0.006951 3.117133 3.524801 -0.019650 -0.161850 -0.181080 18.754172 -12.226431 2.481262 -21.830593 -1.045320 -1.713601 3.653758 -6.075049 11.375713 -0.242359 -4.754765 2.835113 -0.115650 0.121550 -0.075020 -5.844266 1.240661 -7.636538 25.570102 4.187339 7.073712 -27.692957 5.895987 -7.453721 9.549311 -8.305396 -7.420624 -18.323639 -3.999559 41.642911 4.250410 -16.169100 2.168440 -23.952166 15.756631 -2.911958 -54.544817 6.062022 0.644404 131.154367 -61.272970 -108.571924 -3.539164 3.210111 0.076120 -0.076570 -0.146050 0.101440 1.045694 -7.268646 8.232311 0.998545 -29.438834 -0.622885 -3.127167 8.293438 0.132130 2.682908 -1.432715 -0.032780 0.078240 0.052720 0.078590 
0.018300 16.738960 0.432710 4.495416 15.629040 0.813701 -14.419680 12.552829 3.071745 5.142367 -2.438995 -14.815120 -9.123009 4.932352 8.222122 -0.007663 3.131149 3.519912 0.008450 -0.127750 -0.156140 18.748869 -12.310158 2.434322 -21.979773 -1.160136 -1.749500 2.893327 -6.032676 12.025023 -0.246982 -4.754800 2.825962 -0.089180 0.114340 -0.067540 -5.823925 1.323463 -7.603914 24.915479 4.017997 7.385499 -26.821587 5.967192 -6.451629 9.430122 -7.757553 -7.193349 -17.068811 -4.401254 41.361051 4.196420 -15.884130 1.348140 -25.302782 14.536652 -2.633026 -53.589556 4.987388 0.846297 131.837661 -61.961435 -110.577222 -3.552727 3.240573 0.076170 -0.073340 -0.137920 0.104220 2.716611 -6.873569 7.862603 0.698071 -28.474760 -0.316450 -4.953458 8.311049 0.179187 2.697924 -1.449446 -0.029910 0.080880 0.040350 0.072520 
0.028140 16.715530 0.439850 4.124524 13.724448 -0.377090 -14.425397 12.620921 3.003274 6.149154 -2.035801 -13.284705 -8.142249 4.683063 7.135932 -0.049890 3.146189 3.522461 0.046820 -0.071910 -0.128730 18.739580 -12.451078 2.305404 -21.967924 -1.304081 -1.962189 0.560225 -5.647093 13.109720 -0.236817 -4.705385 2.836402 -0.034620 0.128590 -0.051200 -5.736760 1.444664 -7.471891 23.451414 3.622003 7.599151 -24.683496 6.170206 -3.373501 9.174732 -6.446056 -7.037036 -14.118309 -4.972657 40.022828 4.192750 -14.820310 0.133720 -27.539942 11.388159 -1.710737 -52.241876 2.414817 1.362266 136.664253 -61.924070 -118.006114 -3.579374 3.382347 0.062670 -0.041450 -0.141230 0.109090 5.891803 -5.540796 7.242334 0.912775 -25.525636 -0.033901 -9.505741 7.904739 0.219867 2.721075 -1.459478 -0.035740 0.094240 0.032370 0.062720 
0.044730 16.710180 0.440710 3.393670 10.749307 -1.803436 -14.457382 12.752663 2.929990 7.618737 -1.626013 -11.663740 -7.874838 4.852925 7.361724 -0.078078 3.352321 3.451006 0.106900 0.005510 -0.071250 18.699993 -12.469482 2.222068 -22.308253 -1.460221 -2.627517 0.088448 -5.658349 14.118708 -0.236532 -4.698010 2.816292 0.034980 0.126850 -0.031600 -5.529328 1.291193 -7.362312 22.164819 2.807582 8.341340 -22.198517 6.061468 0.008763 8.969725 -5.259912 -7.249540 -11.591402 -4.983387 38.497010 3.362840 -12.716150 -1.465070 -29.216903 7.586900 -0.467257 -49.239888 -1.063415 2.377954 141.739218 -63.211684 -127.110082 -3.605862 3.484991 0.062110 -0.011300 -0.131400 0.113240 8.593271 -3.272448 6.715420 1.134901 -20.645441 -0.199864 -16.036835 7.940202 0.111275 2.720538 -1.503954 -0.043670 0.108690 0.012600 0.037850 
0.053280 16.707300 0.432690 2.695987 7.033317 -3.213786 -14.529968 12.951755 2.902604 9.206637 -1.196489 -10.044853 -8.023437 5.229997 8.031859 -0.110985 3.658432 3.330959 0.170540 0.091370 -0.003980 18.612658 -12.480179 2.074734 -22.523527 -1.508767 -4.198155 -0.628130 -5.643422 16.268637 -0.211115 -4.635891 2.797183 0.116820 0.119070 -0.011180 -5.182113 0.984096 -7.249109 20.162537 2.014966 9.617511 -18.937071 5.822745 3.545246 8.563313 -4.124778 -7.500472 -9.111942 -4.623352 36.237407 2.318920 -9.954260 -3.787360 -29.331001 3.689362 0.844237 -45.240276 -4.489971 3.509137 150.095566 -64.668434 -140.575404 -3.615793 3.578257 0.065170 0.021830 -0.120250 0.103670 10.250031 -0.615018 6.041217 1.269482 -14.581894 -1.145579 -23.432771 9.693129 -0.590938 2.651617 -1.587751 -0.056350 0.125840 0.001070 0.002330 
0.053570 16.703930 0.413110 2.052147 4.660399 -4.347853 -14.681632 13.231726 2.878766 10.542947 -0.841849 -9.179444 -7.981557 5.691895 9.440874 -0.152113 3.980671 3.217859 0.212580 0.153000 0.053930 18.454373 -12.419642 1.904769 -22.512276 -1.564012 -6.112194 -0.962550 -5.781874 19.226332 -0.175012 -4.634457 2.760260 0.191180 0.140780 0.010320 -4.667086 0.399756 -7.146294 17.079717 1.174171 10.949955 -14.959757 5.165279 6.650486 7.979102 -2.752127 -7.612707 -6.302050 -4.717724 33.367795 0.414170 -7.388620 -5.335550 -27.782954 -0.065443 1.966832 -40.407329 -8.063937 5.552304 161.689403 -64.456599 -156.998792 -3.653869 3.584235 0.048980 0.082560 -0.127560 0.097560 10.648600 1.863365 5.262857 1.443822 -10.005408 -2.649513 -31.786740 15.652892 -2.691879 2.490101 -1.696412 -0.081220 0.156900 -0.002990 -0.029050 
0.061230 16.715280 0.375280 1.238272 2.674981 -5.202246 -14.816065 13.531886 2.853881 11.908977 -0.600404 -9.125429 -7.797608 6.232842 11.571309 -0.189848 4.294103 3.088000 0.254300 0.208520 0.105790 18.316206 -12.335472 1.754856 -22.271543 -1.479705 -9.144767 -1.074535 -6.111844 23.597639 -0.148039 -4.732392 2.669563 0.254570 0.151760 0.039340 -4.218786 -0.248328 -7.081824 14.829482 0.225941 12.548386 -11.698504 4.189171 8.677410 7.277601 -1.855385 -7.546254 -4.539136 -4.390802 31.270441 -1.224230 -5.122150 -6.434100 -24.577610 -2.699968 2.509865 -34.981136 -11.657192 7.809773 171.463033 -62.727873 -170.596858 -3.714612 3.565546 0.030540 0.134770 -0.132760 0.089690 9.373508 3.642561 4.379330 1.739813 -7.125247 -4.392863 -40.715055 27.173071 -7.312066 2.261468 -1.752539 -0.092050 0.164180 -0.007010 -0.056040 
0.058300 16.717220 0.341340 0.698086 1.648187 -5.638716 -14.978318 13.760561 2.858818 13.315968 -0.399899 -9.135849 -8.293957 6.896741 13.207575 -0.221324 4.670312 2.937170 0.302710 0.273390 0.162840 18.183851 -12.083922 1.688859 -22.701901 -1.275629 -13.172392 -0.350596 -7.063218 29.352567 -0.178538 -5.133985 2.460996 0.325440 0.157580 0.052000 -3.762168 -1.049186 -7.113061 12.202332 -0.927562 14.375870 -8.725480 2.811770 9.563806 6.463282 -1.463835 -7.147045 -3.613199 -3.566333 29.047271 -2.569990 -2.854250 -8.326880 -20.427587 -3.567290 2.587398 -29.015473 -14.621486 9.718850 174.098807 -58.924410 -173.107912 -3.805913 3.539938 0.030260 0.172170 -0.131040 0.085230 7.263251 4.194136 3.071044 1.365726 -5.907170 -5.865691 -49.828755 44.431948 -15.905843 1.952563 -1.618679 -0.114340 0.191040 -0.015390 -0.087210 
0.055180 16.723990 0.299860 -0.088556 1.600055 -6.072844 -15.087789 13.898609 2.803304 14.544803 -0.406595 -9.909023 -8.152086 7.479399 15.589248 -0.239502 4.966767 2.807859 0.340220 0.329100 0.196720 18.112955 -11.787871 1.789655 -23.511105 -1.302186 -16.450588 1.217340 -8.552749 33.930387 -0.259240 -5.730087 2.205486 0.377670 0.165780 0.063200 -3.493320 -1.724178 -7.228233 10.748795 -2.117120 16.329375 -6.870679 1.377645 9.545635 5.804654 -1.131890 -6.633864 -2.996752 -2.856119 27.904165 -3.362730 -1.329800 -9.430380 -15.583208 -3.620610 2.104386 -21.980049 -18.060840 10.529917 172.220366 -57.093350 -167.774181 -3.886995 3.528247 0.016790 0.202330 -0.130800 0.090240 4.011115 3.968478 1.849491 0.717882 -6.219547 -6.836270 -62.790238 62.642558 -30.674767 1.529639 -1.071557 -0.121130 0.205830 -0.027460 -0.099400 
0.045880 16.730120 0.260200 -1.302594 0.787265 -6.536131 -15.154607 13.971148 2.811146 16.583843 -0.479580 -10.780013 -8.389977 8.233001 17.836569 -0.235252 5.379961 2.636135 0.361760 0.367400 0.214390 18.083666 -11.451801 1.955303 -23.605826 -1.269248 -19.582793 2.437361 -9.996438 38.093077 -0.359017 -6.352498 1.965912 0.420280 0.189040 0.069680 -3.330522 -2.348225 -7.440141 10.045186 -3.224991 18.702589 -5.831009 -0.022106 9.161268 5.265683 -0.645062 -6.484353 -2.258964 -1.560623 27.187000 -3.629460 0.483990 -9.950780 -11.803530 -2.548960 0.407499 -12.753010 -20.632845 9.637487 167.540934 -56.175215 -157.102853 -3.977163 3.508750 0.001720 0.237810 -0.139210 0.097750 1.549069 2.102933 2.420488 -1.711248 -5.218410 -3.081740 -95.306906 69.645621 -61.187661 0.883905 1.154152 -0.136060 0.223750 -0.033090 -0.107960 
